<svg xmlns="http://www.w3.org/2000/svg" width="1064.805" height="753.623" viewBox="0 0 1064.805 753.623">
  <g id="Group_26" data-name="Group 26" transform="translate(-273 -157.605)">
    <g id="Group_16" data-name="Group 16">
      <path id="Path_43" data-name="Path 43" d="M703.576,29.89h0Z" transform="translate(634.23 173.399)" fill="#6c63ff"/>
      <g id="Group_15" data-name="Group 15">
        <g id="Group_21" data-name="Group 21" transform="translate(273 157.605)">
          <g id="Group_12" data-name="Group 12">
            <g id="web-developer" transform="translate(0 0)">
              <path id="Path_1" data-name="Path 1" d="M926.114,774.809c-6.984,26.6-31.459,43.22-31.459,43.22s-13.15-26.5-6.166-53.1,31.459-43.22,31.459-43.22S933.1,748.211,926.114,774.809Z" transform="translate(-69.675 -73.991)" fill="#3f3d56"/>
              <path id="Path_2" data-name="Path 2" d="M915.52,769.183c-19.562,19.327-21.751,48.831-21.751,48.831s29.528-1.831,49.091-21.159,21.751-48.831,21.751-48.831S935.082,749.855,915.52,769.183Z" transform="translate(-69.969 -73.991)" fill="#f9a826"/>
              <path id="Path_3" data-name="Path 3" d="M206.7,674.194h36.841l90.788-35.526s64.472-26.315,59.209,23.684-14.473,117.1-14.473,117.1-28.947-13.158-44.736-9.21-5.263-80.262-5.263-80.262S200.123,751.825,188.281,743.93s-14.473-63.157-14.473-63.157Z" transform="translate(-61.968 -73.991)" fill="#2f2e41"/>
              <path id="Path_4" data-name="Path 4" d="M206.7,674.194h36.841l90.788-35.526s64.472-26.315,59.209,23.684-14.473,117.1-14.473,117.1-28.947-13.158-44.736-9.21-5.263-80.262-5.263-80.262S200.123,751.825,188.281,743.93s-14.473-63.157-14.473-63.157Z" transform="translate(-61.968 -73.991)" opacity="0.1"/>
              <path id="Path_5" data-name="Path 5" d="M264.746,558.82l44.586,64.059,103.945,86.84s96.051,22.368,82.893,38.157-93.419-15.789-93.419-15.789-119.735-86.84-123.682-93.419-47.368-68.42-47.368-68.42Z" transform="translate(-63.994 -73.991)" fill="#a0616a"/>
              <path id="Path_6" data-name="Path 6" d="M264.746,558.82l44.586,64.059,103.945,86.84s96.051,22.368,82.893,38.157-93.419-15.789-93.419-15.789-119.735-86.84-123.682-93.419-47.368-68.42-47.368-68.42Z" transform="translate(-63.994 -73.991)" opacity="0.1"/>
              <path id="Path_7" data-name="Path 7" d="M238.281,507.092l28.947,56.578s-6.579,27.631-17.1,30.263-55.262-34.21-55.262-34.21Z" transform="translate(-61.968 -73.991)" fill="#d0cde1"/>
              <path id="Path_8" data-name="Path 8" d="M238.281,507.092l28.947,56.578s-6.579,27.631-17.1,30.263-55.262-34.21-55.262-34.21Z" transform="translate(-61.968 -73.991)" opacity="0.1"/>
              <path id="Path_9" data-name="Path 9" d="M591.419,644.9l8.551,35.272a2.2,2.2,0,0,1-.043,1.19L561.14,802.574a2.2,2.2,0,0,1-4.287-.423l-5.366-47.219a2.2,2.2,0,0,1,.094-.931l35.6-109.264a2.2,2.2,0,0,1,4.236.163Z" transform="translate(-66.574 -73.991)" fill="#2f2e41"/>
              <path id="Path_10" data-name="Path 10" d="M526.306,575.493l7.894,30.263L499.99,716.28,492.1,682.07Z" transform="translate(-4.602 -1.605)" fill="#f2f2f2"/>
              <path id="Path_11" data-name="Path 11" d="M415.909,812.35c1.316,3.947,136.84-1.316,138.155-2.632a28.565,28.565,0,0,0,2.895-5.263c1.237-2.632,2.368-5.263,2.368-5.263l-5.263-42.6-134.208-4.763s-3.355,36.1-4.039,52.631C415.646,808.626,415.646,811.56,415.909,812.35Z" transform="translate(-65.637 -73.991)" fill="#2f2e41"/>
              <path id="Path_12" data-name="Path 12" d="M474.991,689.965l2.631,36.841H418.413V689.965Z" transform="translate(-3.979 -1.605)" opacity="0.1"/>
              <path id="Path_13" data-name="Path 13" d="M398.677,701.806l.353-.07-1.669,15.86H364.467v-15.79Z" transform="translate(-3.384 -1.605)" opacity="0.1"/>
              <path id="Path_14" data-name="Path 14" d="M415.909,812.35c1.316,3.947,136.84-1.316,138.155-2.632a28.565,28.565,0,0,0,2.895-5.263H415.817C415.646,808.626,415.646,811.56,415.909,812.35Z" transform="translate(-65.627 -73.991)" opacity="0.1"/>
              <circle id="Ellipse_1" data-name="Ellipse 1" cx="59.209" cy="59.209" r="59.209" transform="translate(136.839 296.262)" fill="#a0616a"/>
              <path id="Path_15" data-name="Path 15" d="M254.07,482.093s-19.736,34.21-23.684,52.631-59.209-36.841-59.209-36.841L163.94,478.8s51.973-24.342,48.025-44.078S254.07,482.093,254.07,482.093Z" transform="translate(-61.968 -73.991)" fill="#a0616a"/>
              <path id="Path_16" data-name="Path 16" d="M264.6,584.722l53.946,71.051,128.945,96.051s93.419,19.736,72.367,34.21-81.577-13.158-81.577-13.158-130.261-69.735-157.892-98.682-78.946-77.63-78.946-77.63Z" transform="translate(-61.968 -73.991)" fill="#a0616a"/>
              <path id="Path_17" data-name="Path 17" d="M192.229,695.247l15.789,25L302.249,690.6c20.676-6.5,43.348-4.111,61.687,7.442,16.447,10.362,26.973,26.809,3.289,51.15-47.368,48.683-78.946,22.368-78.946,22.368s-159.207,75-185.523,38.157-27.631-55.262-27.631-55.262S176.44,691.3,192.229,695.247Z" transform="translate(-61.968 -73.991)" fill="#2f2e41"/>
              <path id="Path_18" data-name="Path 18" d="M389.593,782.087s42.1,27.631-7.895,40.789-86.84-5.263-86.84-5.263-43.42,0-43.42-22.368,14.473-25,14.473-25l44.736,6.579S364.594,762.351,389.593,782.087Z" transform="translate(-63.957 -73.991)" fill="#d0cde1"/>
              <path id="Path_19" data-name="Path 19" d="M306.589,414.568c4.03,1.8,8.026,3.923,12.408,4.444s9.371-1.008,11.444-4.9c1.12-2.1,1.248-4.578,1.3-6.961.158-7.225-.364-15.036-4.943-20.627-2.914-3.559-7.167-5.8-10.184-9.274-2.161-2.488-3.6-5.5-5.148-8.411-5.866-11.017-14.551-21.606-26.622-24.782-5.04-1.326-10.328-1.262-15.539-1.188l-30.4.429c-4.919.069-9.914.15-14.623,1.574-9.784,2.958-16.908,11.186-23.432,19.054-4.881,5.887-9.775,11.834-13.439,18.547a65.079,65.079,0,0,0-7.714,31.887,29.834,29.834,0,0,0,1.093,8.437,46.821,46.821,0,0,0,3.316,7.284c5.7,11.2,9.085,25.182,2.665,35.983,11.152-4.555,22.186-10.528,29.542-20.068,3.291-4.267,5.872-9.263,10.258-12.395s11.532-3.4,14.346,1.193a12.857,12.857,0,0,1,1.451,6.022c.205,3.45.2,7.033,1.663,10.164s4.947,5.658,8.273,4.721c5.729-1.614,5.18-10.406,9.592-14.4,3.351-3.033,8.521-2.453,12.826-3.83,5.016-1.6,8.779-5.95,10.924-10.759,1.63-3.656,1.606-13.223,4.691-15.2C294.208,409.022,303,412.969,306.589,414.568Z" transform="translate(-61.968 -73.991)" fill="#2f2e41"/>
              <path id="Path_20" data-name="Path 20" d="M159.24,472.562a15.616,15.616,0,0,1,8.128.021c8.446,2.267,27.38,8.27,31.44,17.4,5.263,11.842,23.684,30.263,23.684,30.263s25,25,19.736,42.1-25,36.841-25,36.841,5.263,81.577-21.052,102.63-36.841,6.579-36.841,26.315-81.577,81.577-97.367,43.42c0,0,7.895-71.051,5.263-96.051C64.638,650.871,68.434,497.145,159.24,472.562Z" transform="translate(-61.968 -73.991)" fill="#d0cde1"/>
              <path id="Path_21" data-name="Path 21" d="M201.439,505.777s80.262,59.209,65.788,84.209c0,0-48.683,23.684-59.209,22.368s-51.315-47.367-61.841-51.315S130.388,486.04,201.439,505.777Z" transform="translate(-61.968 -73.991)" fill="#d0cde1"/>
              <path id="Path_23" data-name="Path 23" d="M1136.427,73.991h0Z" transform="translate(-71.622 -73.991)" fill="#3f3d56"/>
              <rect id="Rectangle_8" data-name="Rectangle 8" width="283" height="2" transform="translate(738.41 742.853)" fill="#3f3d56"/>
            </g>
          </g>
        </g>
      </g>
    </g>
    <g id="Group_25" data-name="Group 25">
      <g id="Group_24" data-name="Group 24">
        <g id="Group_11" data-name="Group 11">
          <rect id="Rectangle_30" data-name="Rectangle 30" width="57.258" height="57.258" transform="translate(1081.736 454.99)" fill="#e6e6e6"/>
          <rect id="Rectangle_31" data-name="Rectangle 31" width="57.258" height="57.258" transform="translate(722.309 272.99)" fill="#e6e6e6"/>
        </g>
        <g id="Group_20" data-name="Group 20" transform="translate(601.558 176.399)">
          <g id="Group_18" data-name="Group 18">
            <g id="Group_10" data-name="Group 10" transform="translate(0)">
              <g id="Group_6" data-name="Group 6">
                <g id="Group_5" data-name="Group 5">
                  <g id="Group_4" data-name="Group 4">
                    <g id="Group_22" data-name="Group 22">
                      <g id="Group_3" data-name="Group 3" transform="translate(21.443 14.343)">
                        <circle id="Ellipse_6" data-name="Ellipse 6" cx="5.54" cy="5.54" r="5.54" fill="#db4f4f"/>
                        <circle id="Ellipse_7" data-name="Ellipse 7" cx="5.54" cy="5.54" r="5.54" transform="translate(15)" fill="#f2a75b"/>
                        <circle id="Ellipse_8" data-name="Ellipse 8" cx="5.54" cy="5.54" r="5.54" transform="translate(30)" fill="#34d980"/>
                      </g>
                    </g>
                  </g>
                  <path id="Path_44" data-name="Path 44" d="M0,0H657.014V384.773H0Z" transform="translate(21.443 36.528)" fill="none"/>
                </g>
                <g id="Group_2" data-name="Group 2" transform="translate(56.983 239.444)">
                  <path id="Path_39" data-name="Path 39" d="M568.786,429.363a65.046,65.046,0,0,0-105-9.7l-4.186-3.658A70.594,70.594,0,0,1,573.57,426.532Z" transform="translate(-442.175 -391.831)" fill="#e6e6e6"/>
                  <path id="Path_40" data-name="Path 40" d="M571.406,501.782l-4.613-3.1a65.078,65.078,0,0,0,1.994-69.316l4.784-2.832A70.638,70.638,0,0,1,571.406,501.782Z" transform="translate(-442.175 -391.831)" fill="#f9a826"/>
                  <path id="Path_41" data-name="Path 41" d="M460.176,509.527a70.59,70.59,0,0,1-.579-93.521l4.186,3.658a65.031,65.031,0,0,0,.534,86.154Z" transform="translate(-442.175 -391.831)" fill="#f9a826"/>
                  <path id="Path_42" data-name="Path 42" d="M512.776,533.04a70.709,70.709,0,0,1-52.6-23.514l4.141-3.709a65.043,65.043,0,0,0,102.476-7.138l4.613,3.1a70.554,70.554,0,0,1-58.63,31.259Z" transform="translate(-442.175 -391.831)" fill="#f9a826"/>
                </g>
              </g>
              <g id="Group_8" data-name="Group 8" transform="translate(325.77 97.425)">
                <rect id="Rectangle_11" data-name="Rectangle 11" width="140.281" height="8.053" transform="translate(63.938 2.863)" fill="#e6e6e6"/>
                <rect id="Rectangle_12" data-name="Rectangle 12" width="216.625" height="8.053" transform="translate(63.938 32.237)" fill="#f9a826"/>
                <rect id="Rectangle_13" data-name="Rectangle 13" width="176.544" height="8.053" transform="translate(63.938 59.911)" fill="#e6e6e6"/>
                <rect id="Rectangle_14" data-name="Rectangle 14" width="103.064" height="8.053" transform="translate(63.938 87.481)" fill="#e6e6e6"/>
                <rect id="Rectangle_15" data-name="Rectangle 15" width="155.55" height="8.053" transform="translate(63.938 115.051)" fill="#e6e6e6"/>
                <rect id="Rectangle_16" data-name="Rectangle 16" width="17.177" height="17.177" fill="#e6e6e6"/>
                <rect id="Rectangle_17" data-name="Rectangle 17" width="17.177" height="17.177" transform="translate(0 27.675)" fill="#f9a826"/>
                <rect id="Rectangle_18" data-name="Rectangle 18" width="17.177" height="17.177" transform="translate(0 55.349)" fill="#e6e6e6"/>
                <rect id="Rectangle_19" data-name="Rectangle 19" width="17.177" height="17.177" transform="translate(0 83.024)" fill="#e6e6e6"/>
                <rect id="Rectangle_20" data-name="Rectangle 20" width="17.177" height="17.177" transform="translate(0 110.698)" fill="#e6e6e6"/>
              </g>
            </g>
            <rect id="Rectangle_32" data-name="Rectangle 32" width="57.258" height="57.258" transform="translate(114.097 96.592)" fill="#e6e6e6"/>
          </g>
          <g id="Group_17" data-name="Group 17" transform="translate(425.097 318.592)">
            <rect id="Rectangle_32-2" data-name="Rectangle 32" width="57.258" height="57.258" fill="#e6e6e6"/>
          </g>
        </g>
      </g>
      <g id="Group_23" data-name="Group 23">
        <path id="Path_45" data-name="Path 45" d="M14,0H643a14.262,14.262,0,0,1,14,14.511,14.262,14.262,0,0,1-14,14.511H14A14.262,14.262,0,0,1,0,14.511,14.262,14.262,0,0,1,14,0Z" transform="translate(608 182)" fill="rgba(188,182,182,0.29)"/>
        <g id="Rectangle_33" data-name="Rectangle 33" transform="translate(608 182)" fill="none" stroke="#b2a7a7" stroke-width="1">
          <rect width="657" height="411" rx="13" stroke="none"/>
          <rect x="0.5" y="0.5" width="656" height="410" rx="12.5" fill="none"/>
        </g>
      </g>
    </g>
  </g>
</svg>
